<?xml version="1.0" encoding="utf-8"?>
<!-- Generator: Adobe Illustrator 19.2.0, SVG Export Plug-In . SVG Version: 6.00 Build 0)  -->
<svg version="1.1" id="Layer_1" xmlns="http://www.w3.org/2000/svg" xmlns:xlink="http://www.w3.org/1999/xlink" x="0px" y="0px"
	 viewBox="0 0 160.5 153.5" style="enable-background:new 0 0 160.5 153.5;" xml:space="preserve">
<style type="text/css">
	.st0{fill:none;stroke:#000000;stroke-width:4;stroke-miterlimit:10;}
</style>
<circle class="st0" cx="82" cy="73.8" r="68.7"/>
<g>
	<path d="M67.5,74.5c0.4-1.8,0.6-3,0.6-3L67.5,74.5z"/>
	<path d="M96.7,74.9l-0.6-3.3C96.1,71.6,96.3,72.8,96.7,74.9z"/>
	<path d="M36.6,45.8c0.6-0.2,1.1-0.7,1.3-1.3l6.9-0.9l-7-0.7c-0.2-0.6-0.7-1-1.3-1.3l-0.8-7l-0.8,7c-0.6,0.2-1.1,0.7-1.3,1.3l-7,0.8
		l7,0.8c0.2,0.6,0.7,1.1,1.4,1.3l0.7,7.3L36.6,45.8z"/>
	<path d="M99.5,47.2l0.3,2.4l0.2-2.5c0.3-0.1,0.5-0.4,0.6-0.7l2.4-0.3l-2.5-0.2c-0.1-0.3-0.3-0.5-0.6-0.6l-0.3-2.5l-0.2,2.4
		c-0.3,0.1-0.6,0.3-0.7,0.6l-2.4,0.3l2.3,0.2C98.8,46.8,99.1,47.1,99.5,47.2z"/>
	<path d="M130.7,49.3l0.5,5.1l0.5-5.1c0.3-0.1,0.6-0.4,0.8-0.7l4.7-0.6l-4.5-0.4c-0.1-0.5-0.5-0.9-1-1.1l-0.5-4.5l-0.5,4.5
		c-0.5,0.2-0.9,0.6-1,1.1l-4.6,0.5l4.8,0.5C130.1,48.9,130.3,49.2,130.7,49.3z"/>
	<path d="M130.5,67.6l-0.3-2.7l-0.3,2.7c-0.2,0.1-0.3,0.2-0.4,0.4l-2.6,0.3l2.5,0.3c0.1,0.2,0.3,0.4,0.5,0.5l0.3,2.7l0.3-2.7
		c0.2-0.1,0.3-0.3,0.4-0.5l2.6-0.4l-2.6-0.3C130.8,67.8,130.7,67.6,130.5,67.6z"/>
	<path d="M72.7,44.6L73,47l0.3-2.4c0.6-0.1,1.1-0.7,1.1-1.3l2.4-0.4l-2.5-0.2c-0.2-0.4-0.6-0.8-1.1-0.9L73,39.1l-0.3,2.7
		c-0.5,0.1-0.8,0.4-1,0.9L69.1,43l2.5,0.3C71.6,43.9,72.1,44.5,72.7,44.6z"/>
	<path d="M59.2,38c0.1,0.6,0.6,1,1.2,1.1l0.3,2.6l0.2-2.6c0.5-0.1,0.9-0.5,1.1-1.1l2.4-0.3L62,37.4c-0.1-0.5-0.5-1-1.1-1.1l-0.3-2.4
		l-0.3,2.4c-0.5,0.1-1,0.5-1.1,1.1l-2.4,0.3L59.2,38z"/>
	<path d="M101.8,68.3l1.5,0.2c0.1,0.7,0.6,1.2,1.3,1.2l0.2,1.7l0.2-1.7c0.6-0.1,1-0.6,1.1-1.2l1.7-0.3l-1.7-0.1
		c-0.1-0.6-0.5-1-1.1-1.1l-0.2-1.6l-0.2,1.6c-0.7,0-1.2,0.6-1.3,1.2L101.8,68.3z"/>
	<path d="M112.9,110.3c-9.4-7.7-14.5-27.6-16.2-35.4l6,30.3c-0.5-0.2-1-0.4-1.6-0.6c-6.4-10.1-11.1-39.7-11.1-39.7l1.5,37.1
		c-1-0.2-2-0.3-3-0.4c-1.9-5.3-4.4-40.2-4.6-42.2l0.2-5l10.9,12.9L84.8,43L82,17l-2.3,25.8L69,67.7l11-13.3l0.1,5
		c-0.1,1.4-2.8,37.7-4.9,42.3c-0.9,0.1-1.8,0.3-2.7,0.4L74,64.9c0,0-4.8,30.4-11.4,40c-0.4,0.2-0.8,0.3-1.2,0.5l6.1-30.9
		c-1.7,7.9-7.1,29.5-17.3,36.5l0.5-0.2c-9.8,6.1-15.5,12.7-15.5,12.7s16.2-18.6,47-18.6s46.7,18.8,46.7,18.8
		S123.1,116.6,112.9,110.3z"/>
	<circle cx="56.9" cy="28.8" r="0.7"/>
	<path d="M60.1,43.4c0-0.4-0.3-0.6-0.6-0.6V44C59.9,44,60.1,43.7,60.1,43.4z"/>
	<circle cx="61.9" cy="46.3" r="0.6"/>
	<circle cx="55.3" cy="50.7" r="0.6"/>
	<circle cx="55.5" cy="63.6" r="0.7"/>
	<circle cx="48.3" cy="61.9" r="0.6"/>
	<circle cx="111.8" cy="63.6" r="0.7"/>
	<circle cx="37.6" cy="66.9" r="0.7"/>
	<circle cx="119.9" cy="62.9" r="0.6"/>
	<circle cx="59.8" cy="73.1" r="0.7"/>
	<circle cx="102.8" cy="33.7" r="0.7"/>
	<circle cx="101.2" cy="38.5" r="0.7"/>
	<circle cx="109.9" cy="30.1" r="0.6"/>
	<circle cx="108.7" cy="35.8" r="0.7"/>
	<circle cx="120.6" cy="33.6" r="0.7"/>
	<circle cx="117.2" cy="38.7" r="0.6"/>
</g>
</svg>
